<?xml version="1.0" encoding="UTF-8" standalone="no"?>
<!DOCTYPE svg PUBLIC "-//W3C//DTD SVG 1.1//EN" "http://www.w3.org/Graphics/SVG/1.1/DTD/svg11.dtd">
<svg width="100%" height="100%" viewBox="0 0 2000 2000" version="1.1" xmlns="http://www.w3.org/2000/svg" xmlns:xlink="http://www.w3.org/1999/xlink" xml:space="preserve" xmlns:serif="http://www.serif.com/" style="fill-rule:evenodd;clip-rule:evenodd;stroke-linecap:round;stroke-linejoin:round;stroke-miterlimit:1.5;">
    <g>
        <path d="M913.333,1315C913.333,1384.725 856.725,1441.333 787,1441.333L501,1441.333C491.912,1441.333 483.046,1440.372 474.5,1438.544L474.5,552.321C474.5,401.471 596.971,279 747.821,279L887.134,279C903.56,300.322 913.333,327.029 913.333,356L913.333,1315Z" style="stroke:black;stroke-width:1px;"/>
        <path d="M946.667,627.383L946.667,356C946.667,328.088 939.489,301.839 926.88,279L1252.179,279C1395.143,279 1512.618,389.001 1524.509,528.91C1522.596,528.859 1520.676,528.833 1518.75,528.833L1126.25,528.833C1050.817,528.833 984.493,568.146 946.667,627.383Z" style="stroke:black;stroke-width:1px;"/>
        <path d="M1510.835,1730.167C1474.029,1837.645 1372.066,1915 1252.179,1915L747.821,1915C596.971,1915 474.5,1792.529 474.5,1641.679L474.5,1472.474C483.12,1473.916 491.973,1474.667 501,1474.667L787,1474.667C838.377,1474.667 884.119,1450.348 913.333,1412.603L913.333,1517.25C913.333,1634.762 1008.738,1730.167 1126.25,1730.167L1510.835,1730.167Z" style="stroke:black;stroke-width:1px;"/>
        <path d="M946.667,1517.25L946.667,741.75C946.667,642.635 1027.135,562.167 1126.25,562.167L1518.75,562.167C1521.01,562.167 1523.26,562.209 1525.5,562.291L1525.5,1641.679C1525.5,1660.569 1523.58,1679.014 1519.923,1696.83C1519.532,1696.832 1519.141,1696.833 1518.75,1696.833L1126.25,1696.833C1027.135,1696.833 946.667,1616.365 946.667,1517.25Z" style="stroke:black;stroke-width:1px;"/>
        <path d="M775.5,245.7C775.5,165.948 876.095,101.2 1000,101.2C1123.905,101.2 1224.5,165.948 1224.5,245.7L775.5,245.7Z" style="stroke:black;stroke-width:1px;"/>
    </g>
</svg>
